HIERARCHY
ROOT Hips
{
	OFFSET 0.000000 0.000000 0.000000 
	CHANNELS 6 Xposition Yposition Zposition Zrotation Yrotation Xrotation
	JOINT LeftUpLeg
	{
		OFFSET 1.363060 -1.794630 0.839290 
		CHANNELS 3 Zrotation Yrotation Xrotation
		JOINT LeftLeg
		{
			OFFSET 2.448110 -6.726130 0.000000 
			CHANNELS 3 Zrotation Yrotation Xrotation
			JOINT LeftFoot
			{
				OFFSET 2.562200 -7.039590 0.000000 
				CHANNELS 3 Zrotation Yrotation Xrotation
				JOINT LeftToeBase
				{
					OFFSET 0.157640 -0.433110 2.322550 
					CHANNELS 3 Zrotation Yrotation Xrotation
					End Site
					{
						OFFSET 0.000000 0.000000 0.000000 
					}
				}
			}
		}
	}
	JOINT RightUpLeg
	{
		OFFSET -1.305520 -1.794630 0.839290 
		CHANNELS 3 Zrotation Yrotation Xrotation
		JOINT RightLeg
		{
			OFFSET -2.542530 -6.985550 0.000000 
			CHANNELS 3 Zrotation Yrotation Xrotation
			JOINT RightFoot
			{
				OFFSET -2.568260 -7.056230 0.000000 
				CHANNELS 3 Zrotation Yrotation Xrotation
				JOINT RightToeBase
				{
					OFFSET -0.164730 -0.452590 2.363150 
					CHANNELS 3 Zrotation Yrotation Xrotation
					End Site
					{
						OFFSET 0.000000 0.000000 0.000000 
					}
				}
			}
		}
	}
	JOINT Spine
	{
		OFFSET 0.028270 2.035590 -0.193380 
		CHANNELS 3 Zrotation Yrotation Xrotation
		JOINT Spine1
		{
			OFFSET 0.056720 2.048850 -0.042750 
			CHANNELS 3 Zrotation Yrotation Xrotation
			JOINT Neck1
			{
				OFFSET -0.054170 1.746240 0.172020 
				CHANNELS 3 Zrotation Yrotation Xrotation
				JOINT Head
				{
					OFFSET 0.104070 1.761360 -0.123970 
					CHANNELS 3 Zrotation Yrotation Xrotation
					End Site
					{
						OFFSET 0.000000 0.000000 0.000000 
					}
				}
			}
			JOINT LeftArm
			{
				OFFSET 3.362410 1.200890 -0.311210 
				CHANNELS 3 Zrotation Yrotation Xrotation
				JOINT LeftForeArm
				{
					OFFSET 4.983000 -0.000000 -0.000000 
					CHANNELS 3 Zrotation Yrotation Xrotation
					JOINT LeftHand
					{
						OFFSET 3.483560 -0.000000 -0.000000 
						CHANNELS 3 Zrotation Yrotation Xrotation
						JOINT LeftHandIndex1
						{
							OFFSET 0.715260 -0.000000 -0.000000 
							CHANNELS 3 Zrotation Yrotation Xrotation
							End Site
							{
								OFFSET 0.000000 0.000000 0.000000 
							}
						}
					}
				}
			}
			JOINT RightArm
			{
				OFFSET -3.136600 1.374050 -0.404650 
				CHANNELS 3 Zrotation Yrotation Xrotation
				JOINT RightForeArm
				{
					OFFSET -5.241900 -0.000000 -0.000000 
					CHANNELS 3 Zrotation Yrotation Xrotation
					JOINT RightHand
					{
						OFFSET -3.444170 -0.000000 -0.000000 
						CHANNELS 3 Zrotation Yrotation Xrotation
						JOINT RightHandIndex1
						{
							OFFSET -0.622530 -0.000000 -0.000000 
							CHANNELS 3 Zrotation Yrotation Xrotation
							End Site
							{
								OFFSET 0.000000 0.000000 0.000000 
							}
						}
					}
				}
			}
		}
	}
}
MOTION
Frames: 6
Frame Time: 0.041667
10.623639 16.707377 11.029739 179.278078 -4.060980 -145.129315 -12.963403 -27.282089 -53.971693 5.781582 20.643890 51.820730 0.265618 -12.030318 -26.295298 2.022300 -8.912300 -25.521400 22.464653 23.982604 -50.674201 -4.315511 -20.167943 48.359504 -3.354285 3.357152 -36.670620 -2.687400 10.170900 -29.531900 1.121151 -0.570905 -5.747282 -1.775612 -0.755374 6.953609 30.297738 5.978538 16.510275 7.097800 3.981200 3.478000 -103.323606 -3.676425 23.175606 16.098596 -19.835389 -3.731850 -1.512295 0.692055 1.959578 -7.125000 0.000000 0.000000 97.648674 -1.275224 27.113500 -27.741665 39.231098 -11.997969 0.300536 3.268459 -7.591338 7.125000 0.000000 0.000000 
10.628121 16.592488 11.048213 179.246103 -4.413135 -145.083416 -12.768193 -27.102584 -55.343780 6.381133 21.166037 53.819781 0.288977 -12.250440 -26.504486 2.532000 -9.895900 -28.640400 22.312744 23.817403 -51.831818 -4.906133 -20.765838 50.426756 -3.537242 3.476324 -37.368419 -2.655600 10.115500 -29.351700 1.081473 -0.445368 -5.739385 -1.937253 -0.689699 6.755005 29.795575 6.379960 16.530428 6.784900 4.199900 3.475300 -103.234871 -3.823684 23.372454 16.135034 -19.855338 -3.740898 -1.539614 0.680689 2.081109 -7.125000 0.000000 0.000000 97.550422 -1.266989 27.699451 -28.337133 39.739863 -12.407057 0.294694 3.305674 -7.930228 7.125000 0.000000 0.000000 
10.629433 16.475304 11.062971 179.145769 -4.734893 -145.131302 -12.693466 -27.014401 -56.584762 7.001941 21.654587 55.825569 0.282689 -12.645020 -26.686346 2.903800 -10.537700 -30.736200 22.072699 23.585752 -52.927197 -5.550274 -21.345058 52.567253 -3.754979 3.866972 -38.134332 -2.533400 9.898400 -28.648400 1.018709 -0.322080 -5.718213 -2.149320 -0.628075 6.548029 29.333667 6.719421 16.518498 6.496400 4.387900 3.496900 -103.099504 -3.980744 23.535699 16.231156 -19.964756 -3.782400 -1.539756 0.643541 1.908101 -7.125000 0.000000 0.000000 97.528901 -1.276953 28.288927 -29.052741 40.335647 -12.892825 0.240305 3.338230 -8.075673 7.125000 0.000000 0.000000 
10.635117 16.358120 11.082538 178.970056 -5.325225 -145.181707 -12.410813 -27.230619 -57.900735 7.663298 22.120114 57.887712 0.068195 -13.840773 -26.399544 2.372300 -9.602000 -27.697200 21.934685 23.050703 -54.028565 -6.197453 -21.875974 54.640981 -3.938833 4.059558 -38.756553 -2.455300 9.756100 -28.190400 1.004184 -0.311016 -5.665535 -2.236869 -0.618800 6.465645 28.788287 7.123967 16.504256 6.158500 4.611300 3.516900 -103.126637 -4.268590 23.529461 16.401638 -20.172520 -3.856702 -1.529344 0.548847 1.517605 -7.125000 0.000000 0.000000 97.506617 -1.138578 28.695317 -29.627253 40.788094 -13.282085 0.270957 3.292895 -7.860085 7.125000 0.000000 0.000000 
10.642551 16.234158 11.096202 178.983465 -5.805158 -145.254500 -12.036609 -27.161314 -59.109758 8.314850 22.537299 59.872395 -0.127171 -14.927076 -26.145743 2.092100 -9.055400 -25.968800 22.084516 22.672032 -55.119626 -6.911712 -22.431357 56.887921 -4.103438 3.690144 -39.391420 -2.596800 10.011900 -29.015200 1.019683 -0.251712 -5.613953 -2.255362 -0.580574 6.421179 28.216501 7.597081 16.510386 5.819300 4.866600 3.521600 -103.321738 -4.512785 23.178075 16.576995 -20.390989 -3.932221 -1.527911 0.478869 1.212622 -7.125000 0.000000 0.000000 97.389920 -0.973959 29.217321 -30.090861 41.134850 -13.592974 0.346608 3.201710 -7.632798 7.125000 0.000000 0.000000 
10.649437 16.107027 11.111943 179.026202 -6.277875 -145.263930 -11.610185 -27.106551 -60.393505 8.993804 22.952024 61.912173 -0.232821 -15.715717 -26.143208 2.402500 -9.658500 -27.877700 22.291277 22.199203 -56.422494 -7.763114 -23.035028 59.478168 -4.280038 3.279406 -40.055059 -2.825100 10.406500 -30.303300 1.007520 -0.188155 -5.591133 -2.421978 -0.543118 6.284719 27.571650 8.085087 16.498528 5.474000 5.126400 3.534600 -103.468484 -4.764297 22.495546 16.677830 -20.509255 -3.971314 -1.539062 0.541783 1.377187 -7.125000 0.000000 0.000000 97.279409 -0.648961 29.826893 -30.482584 41.430959 -13.864369 0.395660 3.181753 -7.600412 7.125000 0.000000 0.000000 
